{"title":"The.East.2013.720p.BRRip.x264-Fastbet99","uid":8884915,"size":1405421612,"categoryP":"video","categoryS":"hd___movies","magnet":"?xt=urn:btih:ed56935c634b45295255be03d31ce856794dcc73&amp;dn=The.East.2013.720p.BRRip.x264-Fastbet99&amp;tr=udp%3A%2F%2Ftracker.openbittorrent.com%3A80&amp;tr=udp%3A%2F%2Fopen.demonii.com%3A1337&amp;tr=udp%3A%2F%2Ftracker.coppersurfer.tk%3A6969&amp;tr=udp%3A%2F%2Fexodus.desync.com%3A6969","seeders":0,"leechers":1,"uploader":"Fastbet99","files":-1,"time":1378428073,"description":"The East (2013)\n\nIMDB Info\t\t\t\t : http://www.imdb.com/title/tt1869716/\n\nSource\t\t\t\t\t : PHD (Thanks)\nComplete name                            : The.East.2013.720p.BRRip.x264-Fastbet99.mp4\nFormat                                   : MPEG-4\nFormat profile                           : Base Media\nCodec ID                                 : isom\nFile size                                : 1.31 GiB\nDuration                                 : 1h 56mn\nOverall bit rate mode                    : Variable\nOverall bit rate                         : 1 613 Kbps\n\n\nVideo\nID                                       : 1\nFormat                                   : AVC\nFormat/Info                              : Advanced Video Codec\nFormat profile                           : &lt;a class=&quot;__cf_email__&quot; href=&quot;/cdn-cgi/l/email-protection&quot; data-cfemail=&quot;662e0f010e262a524857&quot;&gt;[email&amp;#160;protected]&lt;/a&gt;&lt;script cf-hash='f9e31' type=&quot;text/javascript&quot;&gt;\n/* &lt;![CDATA[ */!function(){try{var t=&quot;currentScript&quot;in document?document.currentScript:function(){for(var t=document.getElementsByTagName(&quot;script&quot;),e=t.length;e--;)if(t[e].getAttribute(&quot;cf-hash&quot;))return t[e]}();if(t&amp;&amp;t.previousSibling){var e,r,n,i,c=t.previousSibling,a=c.getAttribute(&quot;data-cfemail&quot;);if(a){for(e=&quot;&quot;,r=parseInt(a.substr(0,2),16),n=2;a.length-n;n+=2)i=parseInt(a.substr(n,2),16)^r,e+=String.fromCharCode(i);e=document.createTextNode(e),c.parentNode.replaceChild(e,c)}}}catch(u){}}();/* ]]&gt; */&lt;/script&gt;\nFormat settings, CABAC                   : Yes\nFormat settings, ReFrames                : 4 frames\nCodec ID                                 : avc1\nCodec ID/Info                            : Advanced Video Coding\nDuration                                 : 1h 56mn\nBit rate                                 : 1 502 Kbps\nMaximum bit rate                         : 21.4 Mbps\nWidth                                    : 1 280 pixels\nHeight                                   : 544 pixels\nDisplay aspect ratio                     : 2.35:1\nFrame rate mode                          : Constant\nFrame rate                               : 23.976 fps\nColor space                              : YUV\nChroma subsampling                       : 4:2:0\nBit depth                                : 8 bits\nScan type                                : Progressive\nBits/(Pixel*Frame)                       : 0.090\nStream size                              : 1.22 GiB (93%)\nWriting library                          : x264 core 133 r2334 a3ac64b\n\n\nAudio\nID                                       : 2\nFormat                                   : AAC\nFormat/Info                              : Advanced Audio Codec\nFormat profile                           : LC\nCodec ID                                 : 40\nDuration                                 : 1h 56mn\nBit rate mode                            : Variable\nBit rate                                 : 96.0 Kbps\nMaximum bit rate                         : 139 Kbps\nChannel(s)                               : 2 channels\nChannel positions                        : Front: L R\nSampling rate                            : 48.0 KHz\nCompression mode                         : Lossy\nStream size                              : 79.7 MiB (6%)\nLanguage                                 : English\n\nText #1\nID                                       : 3\nFormat                                   : mp4s\nCodec ID                                 : E0\nDuration                                 : 1h 50mn\nBit rate mode                            : Variable\nBit rate                                 : 4 544 bps\nMaximum bit rate                         : 65.0 Kbps\nStream size                              : 3.61 MiB (0%)\nLanguage                                 : English\n\n\nText #2\nID                                       : 4\nFormat                                   : mp4s\nCodec ID                                 : E0\nDuration                                 : 1h 55mn\nBit rate mode                            : Variable\nBit rate                                 : 3 408 bps\nMaximum bit rate                         : 97.4 Kbps\nStream size                              : 2.82 MiB (0%)\nLanguage                                 : French\n\n\nText #3\nID                                       : 5\nFormat                                   : mp4s\nCodec ID                                 : E0\nDuration                                 : 1h 56mn\nBit rate mode                            : Variable\nBit rate                                 : 3 816 bps\nMaximum bit rate                         : 61.6 Kbps\nStream size                              : 3.17 MiB (0%)\nLanguage                                 : Spanish\n\n\nText #4\nID                                       : 6\nFormat                                   : mp4s\nCodec ID                                 : E0\nDuration                                 : 34mn 44s\nBit rate mode                            : Variable\nBit rate                                 : 111 bps\nNominal bit rate                         : 104 bps\nMaximum bit rate                         : 22.3 Kbps\nStream size                              : 28.3 KiB (0%)\nLanguage                                 : English\nEncoder\t\t\t\t\t : Fastbet99\n\nScreenshots\n &lt;a href=&quot;\nhttp://lookpic.com/O/i2/269/VjYcjQm.jpeg&quot; rel=&quot;nofollow&quot; target=&quot;_NEW&quot;&gt;\nhttp://lookpic.com/O/i2/269/VjYcjQm.jpeg&lt;/a&gt;\n\nStairway To heaven - Help People With Keep Seed As Long You Can\t","torrent":{"xt":"urn:btih:ed56935c634b45295255be03d31ce856794dcc73","amp;dn":"The.East.2013.720p.BRRip.x264-Fastbet99","amp;tr":["udp%3A%2F%2Ftracker.openbittorrent.com%3A80","udp%3A%2F%2Fopen.demonii.com%3A1337","udp%3A%2F%2Ftracker.coppersurfer.tk%3A6969","udp%3A%2F%2Fexodus.desync.com%3A6969"],"infoHash":"ed56935c634b45295255be03d31ce856794dcc73","infoHashBuffer":{"type":"Buffer","data":[237,86,147,92,99,75,69,41,82,85,190,3,211,28,232,86,121,77,204,115]},"announce":[],"urlList":[]}}